<?xml version="1.0" standalone="no"?>
<!DOCTYPE svg PUBLIC "-//W3C//DTD SVG 20010904//EN"
 "http://www.w3.org/TR/2001/REC-SVG-20010904/DTD/svg10.dtd">
<svg version="1.0" xmlns="http://www.w3.org/2000/svg"
 width="1024.000000pt" height="1024.000000pt" viewBox="0 0 1024.000000 1024.000000"
 preserveAspectRatio="xMidYMid meet">
<metadata>
Created by potrace 1.11, written by Peter Selinger 2001-2013
</metadata>
<g transform="translate(0.000000,1024.000000) scale(0.100000,-0.100000)"
fill="#000000" stroke="none">
<path d="M0 5120 l0 -5120 5120 0 5120 0 0 5120 0 5120 -5120 0 -5120 0 0
-5120z m4450 1096 c302 -77 531 -213 925 -550 277 -237 372 -307 510 -371 115
-54 162 -65 282 -65 336 1 565 188 852 698 29 50 57 92 64 92 6 0 211 -88 454
-197 407 -180 443 -198 437 -217 -14 -44 -186 -387 -254 -505 -365 -634 -749
-963 -1265 -1082 -133 -30 -416 -38 -556 -14 -341 57 -573 188 -1069 604 -239
201 -346 276 -473 336 -118 55 -163 65 -284 65 -116 0 -200 -18 -286 -61 -195
-98 -352 -271 -544 -600 l-79 -137 -449 204 c-247 113 -451 207 -454 209 -7 7
119 254 220 431 303 530 615 863 976 1043 113 57 285 114 393 131 41 6 82 13
90 15 8 2 103 2 210 1 171 -3 208 -7 300 -30z"/>
</g>
</svg>
